<mxfile host="app.diagrams.net" agent="Mozilla/5.0 (Windows NT 10.0; Win64; x64) AppleWebKit/537.36 (KHTML, like Gecko) Chrome/135.0.0.0 Safari/537.36 OPR/120.0.0.0" version="28.1.2">
  <diagram name="Page-1" id="dCV4GwtiuifpOzYYX_bR">
    <mxGraphModel dx="1008" dy="611" grid="1" gridSize="10" guides="1" tooltips="1" connect="1" arrows="1" fold="1" page="1" pageScale="1" pageWidth="850" pageHeight="1100" math="0" shadow="0">
      <root>
        <mxCell id="0" />
        <mxCell id="1" parent="0" />
        <mxCell id="4cN96NTuywUgI4NDyNP6-3" value="" style="edgeStyle=orthogonalEdgeStyle;rounded=0;orthogonalLoop=1;jettySize=auto;html=1;" edge="1" parent="1" source="4cN96NTuywUgI4NDyNP6-1" target="4cN96NTuywUgI4NDyNP6-2">
          <mxGeometry relative="1" as="geometry" />
        </mxCell>
        <mxCell id="4cN96NTuywUgI4NDyNP6-1" value="start" style="ellipse;whiteSpace=wrap;html=1;fillColor=#008a00;fontColor=#ffffff;strokeColor=#005700;" vertex="1" parent="1">
          <mxGeometry x="395" y="72" width="90" height="50" as="geometry" />
        </mxCell>
        <mxCell id="4cN96NTuywUgI4NDyNP6-5" value="" style="edgeStyle=orthogonalEdgeStyle;rounded=0;orthogonalLoop=1;jettySize=auto;html=1;" edge="1" parent="1" source="4cN96NTuywUgI4NDyNP6-2" target="4cN96NTuywUgI4NDyNP6-4">
          <mxGeometry relative="1" as="geometry" />
        </mxCell>
        <mxCell id="4cN96NTuywUgI4NDyNP6-2" value="Input Montly Rent Total" style="shape=parallelogram;perimeter=parallelogramPerimeter;whiteSpace=wrap;html=1;fixedSize=1;fillColor=#fa6800;fontColor=#000000;strokeColor=#C73500;" vertex="1" parent="1">
          <mxGeometry x="365" y="157" width="150" height="60" as="geometry" />
        </mxCell>
        <mxCell id="4cN96NTuywUgI4NDyNP6-7" value="" style="edgeStyle=orthogonalEdgeStyle;rounded=0;orthogonalLoop=1;jettySize=auto;html=1;" edge="1" parent="1" source="4cN96NTuywUgI4NDyNP6-4" target="4cN96NTuywUgI4NDyNP6-6">
          <mxGeometry relative="1" as="geometry" />
        </mxCell>
        <mxCell id="4cN96NTuywUgI4NDyNP6-4" value="Input Total Days" style="shape=parallelogram;perimeter=parallelogramPerimeter;whiteSpace=wrap;html=1;fixedSize=1;fillColor=#fa6800;fontColor=#000000;strokeColor=#C73500;" vertex="1" parent="1">
          <mxGeometry x="380" y="254" width="120" height="60" as="geometry" />
        </mxCell>
        <mxCell id="4cN96NTuywUgI4NDyNP6-9" value="" style="edgeStyle=orthogonalEdgeStyle;rounded=0;orthogonalLoop=1;jettySize=auto;html=1;" edge="1" parent="1" source="4cN96NTuywUgI4NDyNP6-6" target="4cN96NTuywUgI4NDyNP6-8">
          <mxGeometry relative="1" as="geometry" />
        </mxCell>
        <mxCell id="4cN96NTuywUgI4NDyNP6-6" value="Daily Rent: Take Monthly Rent Total divided by Total Days" style="whiteSpace=wrap;html=1;fillColor=#1ba1e2;fontColor=#ffffff;strokeColor=#006EAF;" vertex="1" parent="1">
          <mxGeometry x="380" y="350" width="120" height="60" as="geometry" />
        </mxCell>
        <mxCell id="4cN96NTuywUgI4NDyNP6-8" value="Output Daily Rent" style="shape=parallelogram;perimeter=parallelogramPerimeter;whiteSpace=wrap;html=1;fixedSize=1;fillColor=#fa6800;fontColor=#000000;strokeColor=#C73500;" vertex="1" parent="1">
          <mxGeometry x="375" y="449" width="130" height="60" as="geometry" />
        </mxCell>
        <mxCell id="4cN96NTuywUgI4NDyNP6-12" value="stop" style="ellipse;whiteSpace=wrap;html=1;fillColor=#008a00;fontColor=#ffffff;strokeColor=#005700;" vertex="1" parent="1">
          <mxGeometry x="395" y="544" width="90" height="50" as="geometry" />
        </mxCell>
        <mxCell id="4cN96NTuywUgI4NDyNP6-13" value="" style="endArrow=classic;html=1;rounded=0;entryX=0.5;entryY=0;entryDx=0;entryDy=0;" edge="1" parent="1" source="4cN96NTuywUgI4NDyNP6-8" target="4cN96NTuywUgI4NDyNP6-12">
          <mxGeometry width="50" height="50" relative="1" as="geometry">
            <mxPoint x="400" y="360" as="sourcePoint" />
            <mxPoint x="450" y="310" as="targetPoint" />
          </mxGeometry>
        </mxCell>
      </root>
    </mxGraphModel>
  </diagram>
</mxfile>
